ffmpeg started on 2016-12-09 at 10:55:25
Report written to "Output/x264/results/ffmpeg/sintelplacebo3500k.log"
Command line:
Tools/ffmpeg/ffmpeg -benchmark -y -i Input/y4m/sintel.y4m -c:v libx264 -preset placebo -b:v 3500k -an Output/x264/encoded/sintelplacebo3500k.mkv
ffmpeg version N-82227-gdb23fde Copyright (c) 2000-2016 the FFmpeg developers
  built with gcc 5.4.0 (Ubuntu 5.4.0-6ubuntu1~16.04.2) 20160609
  configuration: --prefix=/home/jaroslav/ffmpeg_build --pkg-config-flags=--static --extra-cflags=-I/home/jaroslav/ffmpeg_build/include --extra-ldflags=-L/home/jaroslav/ffmpeg_build/lib --bindir=/home/jaroslav/bin --enable-gpl --enable-libass --enable-libfdk-aac --enable-libfreetype --enable-libmp3lame --enable-libopus --enable-libtheora --enable-libvorbis --enable-libvpx --enable-libx264 --enable-libx265 --enable-nvenc --enable-libmfx --enable-libxvid --enable-libgsm --enable-libopencore-amrnb --enable-version3 --enable-nonfree
  libavutil      55. 35.100 / 55. 35.100
  libavcodec     57. 66.101 / 57. 66.101
  libavformat    57. 57.100 / 57. 57.100
  libavdevice    57.  2.100 / 57.  2.100
  libavfilter     6. 66.100 /  6. 66.100
  libswscale      4.  3.100 /  4.  3.100
  libswresample   2.  4.100 /  2.  4.100
  libpostproc    54.  2.100 / 54.  2.100
Input #0, yuv4mpegpipe, from 'Input/y4m/sintel.y4m':
  Duration: 00:00:20.83, start: 0.000000, bitrate: 2057307 kb/s
    Stream #0:0: Video: rawvideo (I420 / 0x30323449), yuv420p(progressive), 4096x1744, SAR 1:1 DAR 256:109, 24 fps, 24 tbr, 24 tbn, 24 tbc
[libx264 @ 0x32621c0] using SAR=1/1
[libx264 @ 0x32621c0] DPB size (16 frames, 446464 mbs) > level limit (6 frames, 184320 mbs)
[libx264 @ 0x32621c0] using cpu capabilities: MMX2 SSE2Fast SSSE3 SSE4.2 AVX FMA3 AVX2 LZCNT BMI2
[libx264 @ 0x32621c0] profile High, level 5.2
[libx264 @ 0x32621c0] 264 - core 148 - H.264/MPEG-4 AVC codec - Copyleft 2003-2016 - http://www.videolan.org/x264.html - options: cabac=1 ref=16 deblock=1:0:0 analyse=0x3:0x133 me=tesa subme=11 psy=1 psy_rd=1.00:0.00 mixed_ref=1 me_range=24 chroma_me=1 trellis=2 8x8dct=1 cqm=0 deadzone=21,11 fast_pskip=0 chroma_qp_offset=-2 threads=6 lookahead_threads=1 sliced_threads=0 nr=0 decimate=1 interlaced=0 bluray_compat=0 constrained_intra=0 bframes=16 b_pyramid=2 b_adapt=2 b_bias=0 direct=3 weightb=1 open_gop=0 weightp=2 keyint=250 keyint_min=24 scenecut=40 intra_refresh=0 rc_lookahead=60 rc=abr mbtree=1 bitrate=3500 ratetol=1.0 qcomp=0.60 qpmin=0 qpmax=69 qpstep=4 ip_ratio=1.40 aq=1:1.00
Output #0, matroska, to 'Output/x264/encoded/sintelplacebo3500k.mkv':
  Metadata:
    encoder         : Lavf57.57.100
    Stream #0:0: Video: h264 (libx264) (H264 / 0x34363248), yuv420p, 4096x1744 [SAR 1:1 DAR 256:109], q=-1--1, 3500 kb/s, 24 fps, 1k tbn, 24 tbc
    Metadata:
      encoder         : Lavc57.66.101 libx264
    Side data:
      cpb: bitrate max/min/avg: 0/0/3500000 buffer size: 0 vbv_delay: -1
Stream mapping:
  Stream #0:0 -> #0:0 (rawvideo (native) -> h264 (libx264))
Press [q] to stop, [?] for help
frame=   12 fps=0.0 q=0.0 size=       0kB time=00:00:00.00 bitrate=N/A speed=   0x    frame=   20 fps= 19 q=0.0 size=       0kB time=00:00:00.00 bitrate=N/A speed=   0x    frame=   28 fps= 18 q=0.0 size=       0kB time=00:00:00.00 bitrate=N/A speed=   0x    frame=   29 fps=5.9 q=0.0 size=       0kB time=00:00:00.00 bitrate=N/A speed=   0x    frame=   30 fps=3.7 q=0.0 size=       0kB time=00:00:00.00 bitrate=N/A speed=   0x    frame=   31 fps=2.7 q=0.0 size=       0kB time=00:00:00.00 bitrate=N/A speed=   0x    frame=   39 fps=3.3 q=0.0 size=       0kB time=00:00:00.00 bitrate=N/A speed=   0x    frame=   47 fps=3.8 q=0.0 size=       0kB time=00:00:00.00 bitrate=N/A speed=   0x    frame=   50 fps=3.9 q=0.0 size=       0kB time=00:00:00.00 bitrate=N/A speed=   0x    frame=   58 fps=4.3 q=0.0 size=       0kB time=00:00:00.00 bitrate=N/A speed=   0x    frame=   66 fps=4.7 q=0.0 size=       0kB time=00:00:00.00 bitrate=N/A speed=   0x    frame=   74 fps=5.1 q=0.0 size=       0kB time=00:00:00.00 bitrate=N/A speed=   0x    frame=   82 fps=5.5 q=0.0 size=       0kB time=00:00:00.00 bitrate=N/A speed=   0x    frame=   84 fps=1.2 q=0.0 size=       0kB time=00:00:00.00 bitrate=N/A speed=   0x    frame=   86 fps=1.3 q=0.0 size=       0kB time=00:00:00.00 bitrate=N/A speed=   0x    frame=   88 fps=1.2 q=34.0 size=       1kB time=-00:00:00.08 bitrate=N/A speed=N/A    frame=   90 fps=1.2 q=39.0 size=       1kB time=00:00:00.00 bitrate=5888.0kbits/s speed=1.35e-05x    frame=   92 fps=1.2 q=46.0 size=       1kB time=00:00:00.08 bitrate=  70.1kbits/s speed=0.00109x    frame=   93 fps=1.2 q=51.0 size=       1kB time=00:00:00.12 bitrate=  46.7kbits/s speed=0.00159x    frame=   94 fps=1.2 q=50.0 size=       1kB time=00:00:00.16 bitrate=  35.0kbits/s speed=0.0021x    frame=   95 fps=1.2 q=51.0 size=       1kB time=00:00:00.20 bitrate=  28.2kbits/s speed=0.0026x    frame=   96 fps=1.2 q=51.0 size=       1kB time=00:00:00.25 bitrate=  23.5kbits/s speed=0.00307x    frame=   98 fps=1.2 q=51.0 size=       1kB time=00:00:00.33 bitrate=  17.6kbits/s speed=0.00399x    frame=   99 fps=1.2 q=51.0 size=       1kB time=00:00:00.37 bitrate=  15.7kbits/s speed=0.00444x    frame=  100 fps=1.2 q=51.0 size=       1kB time=00:00:00.41 bitrate=  14.1kbits/s speed=0.00487x    frame=  101 fps=1.1 q=51.0 size=       1kB time=00:00:00.45 bitrate=  12.8kbits/s speed=0.00516x    frame=  103 fps=1.1 q=51.0 size=       1kB time=00:00:00.54 bitrate=  10.8kbits/s speed=0.00596x    frame=  104 fps=1.1 q=51.0 size=       1kB time=00:00:00.58 bitrate=  10.1kbits/s speed=0.0063x    frame=  105 fps=1.1 q=51.0 size=       1kB time=00:00:00.62 bitrate=   9.4kbits/s speed=0.00653x    frame=  106 fps=1.1 q=51.0 size=       1kB time=00:00:00.66 bitrate=   8.8kbits/s speed=0.00666x    frame=  107 fps=1.1 q=51.0 size=       1kB time=00:00:00.70 bitrate=   8.3kbits/s speed=0.00701x    frame=  108 fps=1.0 q=51.0 size=       1kB time=00:00:00.75 bitrate=   7.8kbits/s speed=0.00728x    frame=  109 fps=1.0 q=51.0 size=       1kB time=00:00:00.79 bitrate=   7.4kbits/s speed=0.00748x    frame=  110 fps=1.0 q=51.0 size=       1kB time=00:00:00.83 bitrate=   7.1kbits/s speed=0.00764x    frame=  111 fps=1.0 q=51.0 size=       1kB time=00:00:00.87 bitrate=   6.7kbits/s speed=0.00785x    frame=  112 fps=1.0 q=51.0 size=       1kB time=00:00:00.91 bitrate=   6.4kbits/s speed=0.00799x    frame=  113 fps=1.0 q=51.0 size=       1kB time=00:00:00.95 bitrate=   6.1kbits/s speed=0.0082x    frame=  114 fps=1.0 q=51.0 size=       1kB time=00:00:01.00 bitrate=   5.9kbits/s speed=0.00847x    frame=  115 fps=1.0 q=51.0 size=       1kB time=00:00:01.04 bitrate=   5.6kbits/s speed=0.00866x    frame=  116 fps=0.9 q=51.0 size=       1kB time=00:00:01.08 bitrate=   5.4kbits/s speed=0.00882x    frame=  117 fps=0.9 q=51.0 size=       1kB time=00:00:01.12 bitrate=   5.2kbits/s speed=0.00899x    frame=  118 fps=0.9 q=51.0 size=       1kB time=00:00:01.16 bitrate=   5.0kbits/s speed=0.00915x    frame=  119 fps=0.9 q=51.0 size=       1kB time=00:00:01.20 bitrate=   4.9kbits/s speed=0.00933x    frame=  120 fps=0.9 q=51.0 size=       1kB time=00:00:01.25 bitrate=   4.7kbits/s speed=0.00945x    frame=  121 fps=0.9 q=51.0 size=       1kB time=00:00:01.29 bitrate=   4.6kbits/s speed=0.00968x    frame=  122 fps=0.9 q=50.0 size=       1kB time=00:00:01.33 bitrate=   4.4kbits/s speed=0.00988x    frame=  123 fps=0.9 q=50.0 size=       1kB time=00:00:01.37 bitrate=   4.3kbits/s speed=0.01x    frame=  124 fps=0.9 q=50.0 size=       1kB time=00:00:01.41 bitrate=   4.2kbits/s speed=0.01x    frame=  125 fps=0.9 q=50.0 size=       1kB time=00:00:01.45 bitrate=   4.0kbits/s speed=0.0102x    frame=  126 fps=0.9 q=50.0 size=       1kB time=00:00:01.50 bitrate=   3.9kbits/s speed=0.0104x    frame=  127 fps=0.9 q=50.0 size=       1kB time=00:00:01.54 bitrate=   3.8kbits/s speed=0.0105x    frame=  128 fps=0.9 q=50.0 size=       1kB time=00:00:01.58 bitrate=   3.7kbits/s speed=0.0107x    frame=  129 fps=0.9 q=50.0 size=       1kB time=00:00:01.62 bitrate=   3.6kbits/s speed=0.0109x    frame=  130 fps=0.9 q=50.0 size=       1kB time=00:00:01.66 bitrate=   3.5kbits/s speed=0.0109x    frame=  131 fps=0.8 q=50.0 size=       1kB time=00:00:01.70 bitrate=   3.4kbits/s speed=0.011x    frame=  132 fps=0.8 q=50.0 size=       1kB time=00:00:01.75 bitrate=   3.4kbits/s speed=0.0112x    frame=  133 fps=0.8 q=50.0 size=       1kB time=00:00:01.79 bitrate=   3.3kbits/s speed=0.0113x    frame=  134 fps=0.8 q=50.0 size=       1kB time=00:00:01.83 bitrate=   3.2kbits/s speed=0.0115x    frame=  135 fps=0.8 q=50.0 size=       1kB time=00:00:01.87 bitrate=   3.1kbits/s speed=0.0116x    frame=  136 fps=0.8 q=50.0 size=       1kB time=00:00:01.91 bitrate=   3.1kbits/s speed=0.0117x    frame=  137 fps=0.8 q=50.0 size=       1kB time=00:00:01.95 bitrate=   3.0kbits/s speed=0.0117x    frame=  138 fps=0.8 q=50.0 size=       1kB time=00:00:02.00 bitrate=   2.9kbits/s speed=0.0119x    frame=  139 fps=0.8 q=50.0 size=       1kB time=00:00:02.04 bitrate=   2.9kbits/s speed=0.0119x    frame=  140 fps=0.8 q=50.0 size=       1kB time=00:00:02.08 bitrate=   2.8kbits/s speed=0.012x    frame=  141 fps=0.8 q=50.0 size=       1kB time=00:00:02.12 bitrate=   2.8kbits/s speed=0.0121x    frame=  142 fps=0.8 q=50.0 size=       1kB time=00:00:02.16 bitrate=   2.7kbits/s speed=0.0121x    frame=  143 fps=0.8 q=50.0 size=       1kB time=00:00:02.20 bitrate=   2.7kbits/s speed=0.0122x    frame=  144 fps=0.8 q=50.0 size=       1kB time=00:00:02.25 bitrate=   2.6kbits/s speed=0.0122x    frame=  145 fps=0.8 q=50.0 size=       1kB time=00:00:02.29 bitrate=   2.6kbits/s speed=0.0123x    frame=  146 fps=0.8 q=50.0 size=       1kB time=00:00:02.33 bitrate=   2.5kbits/s speed=0.0124x    frame=  147 fps=0.8 q=50.0 size=       1kB time=00:00:02.37 bitrate=   2.5kbits/s speed=0.0125x    frame=  148 fps=0.8 q=50.0 size=       1kB time=00:00:02.41 bitrate=   2.4kbits/s speed=0.0126x    frame=  149 fps=0.8 q=49.0 size=       1kB time=00:00:02.45 bitrate=   2.4kbits/s speed=0.0126x    frame=  150 fps=0.8 q=49.0 size=       1kB time=00:00:02.50 bitrate=   2.4kbits/s speed=0.0127x    frame=  151 fps=0.8 q=49.0 size=       1kB time=00:00:02.54 bitrate=   2.3kbits/s speed=0.0128x    frame=  152 fps=0.8 q=49.0 size=       1kB time=00:00:02.58 bitrate=   2.3kbits/s speed=0.0129x    frame=  153 fps=0.8 q=49.0 size=       1kB time=00:00:02.62 bitrate=   2.2kbits/s speed=0.013x    frame=  154 fps=0.7 q=49.0 size=       1kB time=00:00:02.66 bitrate=   2.2kbits/s speed=0.0127x    frame=  155 fps=0.7 q=49.0 size=       1kB time=00:00:02.70 bitrate=   2.2kbits/s speed=0.0129x    frame=  156 fps=0.7 q=49.0 size=       1kB time=00:00:02.75 bitrate=   2.1kbits/s speed=0.013x    frame=  157 fps=0.7 q=49.0 size=       1kB time=00:00:02.79 bitrate=   2.1kbits/s speed=0.0131x    frame=  158 fps=0.7 q=49.0 size=       1kB time=00:00:02.83 bitrate=   2.1kbits/s speed=0.0132x    frame=  159 fps=0.7 q=49.0 size=       1kB time=00:00:02.87 bitrate=   2.0kbits/s speed=0.0133x    frame=  160 fps=0.7 q=49.0 size=       1kB time=00:00:02.91 bitrate=   2.0kbits/s speed=0.0131x    frame=  161 fps=0.7 q=49.0 size=       1kB time=00:00:02.95 bitrate=   2.0kbits/s speed=0.0131x    frame=  162 fps=0.7 q=49.0 size=       1kB time=00:00:03.00 bitrate=   2.0kbits/s speed=0.0132x    frame=  163 fps=0.7 q=49.0 size=       1kB time=00:00:03.04 bitrate=   1.9kbits/s speed=0.0133x    frame=  164 fps=0.7 q=49.0 size=       1kB time=00:00:03.08 bitrate=   1.9kbits/s speed=0.0134x    frame=  165 fps=0.7 q=49.0 size=       1kB time=00:00:03.12 bitrate=   1.9kbits/s speed=0.0135x    frame=  166 fps=0.7 q=49.0 size=       1kB time=00:00:03.16 bitrate=   1.9kbits/s speed=0.0134x    frame=  167 fps=0.7 q=49.0 size=       1kB time=00:00:03.20 bitrate=   1.8kbits/s speed=0.0135x    frame=  168 fps=0.7 q=49.0 size=       1kB time=00:00:03.25 bitrate=   1.8kbits/s speed=0.0135x    frame=  169 fps=0.7 q=49.0 size=       1kB time=00:00:03.29 bitrate=   1.8kbits/s speed=0.0135x    frame=  170 fps=0.7 q=49.0 size=       1kB time=00:00:03.33 bitrate=   1.8kbits/s speed=0.0136x    frame=  171 fps=0.7 q=49.0 size=       1kB time=00:00:03.37 bitrate=   1.7kbits/s speed=0.0137x    frame=  172 fps=0.7 q=49.0 size=       1kB time=00:00:03.41 bitrate=   1.7kbits/s speed=0.0137x    frame=  173 fps=0.7 q=49.0 size=       1kB time=00:00:03.45 bitrate=   1.7kbits/s speed=0.0137x    frame=  174 fps=0.7 q=49.0 size=       1kB time=00:00:03.50 bitrate=   1.7kbits/s speed=0.0137x    frame=  175 fps=0.7 q=49.0 size=       1kB time=00:00:03.54 bitrate=   1.7kbits/s speed=0.0137x    frame=  176 fps=0.7 q=49.0 size=       1kB time=00:00:03.58 bitrate=   1.6kbits/s speed=0.0137x    frame=  177 fps=0.7 q=49.0 size=       1kB time=00:00:03.62 bitrate=   1.6kbits/s speed=0.0138x    frame=  178 fps=0.7 q=49.0 size=       1kB time=00:00:03.66 bitrate=   1.6kbits/s speed=0.0138x    frame=  179 fps=0.7 q=49.0 size=       1kB time=00:00:03.70 bitrate=   1.6kbits/s speed=0.0139x    frame=  180 fps=0.7 q=49.0 size=       1kB time=00:00:03.75 bitrate=   1.6kbits/s speed=0.0139x    frame=  181 fps=0.7 q=49.0 size=       1kB time=00:00:03.79 bitrate=   1.6kbits/s speed=0.0139x    frame=  182 fps=0.7 q=49.0 size=       1kB time=00:00:03.83 bitrate=   1.5kbits/s speed=0.014x    frame=  183 fps=0.7 q=49.0 size=       1kB time=00:00:03.87 bitrate=   1.5kbits/s speed=0.014x    frame=  184 fps=0.7 q=49.0 size=       1kB time=00:00:03.91 bitrate=   1.5kbits/s speed=0.014x    frame=  185 fps=0.7 q=49.0 size=       1kB time=00:00:03.95 bitrate=   1.5kbits/s speed=0.0141x    frame=  186 fps=0.7 q=49.0 size=       1kB time=00:00:04.00 bitrate=   1.5kbits/s speed=0.0141x    frame=  187 fps=0.7 q=49.0 size=       1kB time=00:00:04.04 bitrate=   1.5kbits/s speed=0.0142x    frame=  188 fps=0.7 q=49.0 size=       1kB time=00:00:04.08 bitrate=   1.4kbits/s speed=0.0142x    frame=  189 fps=0.7 q=49.0 size=       1kB time=00:00:04.12 bitrate=   1.4kbits/s speed=0.0142x    frame=  190 fps=0.7 q=49.0 size=       1kB time=00:00:04.16 bitrate=   1.4kbits/s speed=0.0143x    frame=  191 fps=0.6 q=49.0 size=       1kB time=00:00:04.20 bitrate=   1.4kbits/s speed=0.0143x    frame=  192 fps=0.7 q=49.0 size=       1kB time=00:00:04.25 bitrate=   1.4kbits/s speed=0.0144x    frame=  193 fps=0.6 q=49.0 size=       1kB time=00:00:04.29 bitrate=   1.4kbits/s speed=0.0144x    frame=  194 fps=0.7 q=49.0 size=       1kB time=00:00:04.33 bitrate=   1.4kbits/s speed=0.0145x    frame=  195 fps=0.6 q=49.0 size=       1kB time=00:00:04.37 bitrate=   1.3kbits/s speed=0.0144x    frame=  196 fps=0.6 q=48.0 size=       1kB time=00:00:04.41 bitrate=   1.3kbits/s speed=0.0145x    frame=  198 fps=0.6 q=48.0 size=       1kB time=00:00:04.50 bitrate=   1.3kbits/s speed=0.0147x    frame=  199 fps=0.6 q=48.0 size=       1kB time=00:00:04.54 bitrate=   1.3kbits/s speed=0.0147x    frame=  200 fps=0.6 q=48.0 size=       1kB time=00:00:04.58 bitrate=   1.3kbits/s speed=0.0148x    frame=  201 fps=0.6 q=48.0 size=       1kB time=00:00:04.62 bitrate=   1.3kbits/s speed=0.0147x    frame=  202 fps=0.6 q=48.0 size=       1kB time=00:00:04.66 bitrate=   1.3kbits/s speed=0.0147x    frame=  203 fps=0.6 q=48.0 size=       1kB time=00:00:04.70 bitrate=   1.3kbits/s speed=0.0148x    frame=  204 fps=0.6 q=48.0 size=       1kB time=00:00:04.75 bitrate=   1.2kbits/s speed=0.0146x    frame=  205 fps=0.6 q=48.0 size=       1kB time=00:00:04.79 bitrate=   1.2kbits/s speed=0.0147x    frame=  206 fps=0.6 q=48.0 size=       1kB time=00:00:04.83 bitrate=   1.2kbits/s speed=0.0147x    frame=  207 fps=0.6 q=48.0 size=       1kB time=00:00:04.87 bitrate=   1.2kbits/s speed=0.0148x    frame=  208 fps=0.6 q=48.0 size=    2280kB time=00:00:04.91 bitrate=3797.1kbits/s speed=0.0149x    frame=  209 fps=0.6 q=48.0 size=    2280kB time=00:00:04.95 bitrate=3765.7kbits/s speed=0.0149x    frame=  210 fps=0.6 q=48.0 size=    2280kB time=00:00:05.00 bitrate=3734.0kbits/s speed=0.015x    frame=  211 fps=0.6 q=48.0 size=    2280kB time=00:00:05.04 bitrate=3702.9kbits/s speed=0.0148x    frame=  212 fps=0.6 q=48.0 size=    2280kB time=00:00:05.08 bitrate=3673.1kbits/s speed=0.0149x    frame=  213 fps=0.6 q=48.0 size=    2280kB time=00:00:05.12 bitrate=3643.0kbits/s speed=0.0149x    frame=  214 fps=0.6 q=48.0 size=    2280kB time=00:00:05.16 bitrate=3613.4kbits/s speed=0.0149x    frame=  215 fps=0.6 q=48.0 size=    2280kB time=00:00:05.20 bitrate=3584.9kbits/s speed=0.0149x    frame=  216 fps=0.6 q=48.0 size=    2280kB time=00:00:05.25 bitrate=3556.3kbits/s speed=0.015x    frame=  217 fps=0.6 q=48.0 size=    2280kB time=00:00:05.29 bitrate=3528.0kbits/s speed=0.0149x    frame=  218 fps=0.6 q=48.0 size=    2280kB time=00:00:05.33 bitrate=3500.9kbits/s speed=0.015x    frame=  219 fps=0.6 q=48.0 size=    2280kB time=00:00:05.37 bitrate=3473.6kbits/s speed=0.015x    frame=  220 fps=0.6 q=48.0 size=    2280kB time=00:00:05.41 bitrate=3446.6kbits/s speed=0.015x    frame=  221 fps=0.6 q=48.0 size=    2280kB time=00:00:05.45 bitrate=3420.8kbits/s speed=0.015x    frame=  222 fps=0.6 q=48.0 size=    2280kB time=00:00:05.50 bitrate=3394.6kbits/s speed=0.0151x    frame=  223 fps=0.6 q=48.0 size=    2280kB time=00:00:05.54 bitrate=3368.9kbits/s speed=0.015x    frame=  224 fps=0.6 q=48.0 size=    2280kB time=00:00:05.58 bitrate=3344.2kbits/s speed=0.015x    frame=  225 fps=0.6 q=48.0 size=    2280kB time=00:00:05.62 bitrate=3319.2kbits/s speed=0.0151x    frame=  226 fps=0.6 q=48.0 size=    2280kB time=00:00:05.66 bitrate=3294.6kbits/s speed=0.0151x    frame=  227 fps=0.6 q=48.0 size=    2280kB time=00:00:05.70 bitrate=3271.0kbits/s speed=0.0151x    frame=  228 fps=0.6 q=48.0 size=    2280kB time=00:00:05.75 bitrate=3247.1kbits/s speed=0.0151x    frame=  229 fps=0.6 q=48.0 size=    2280kB time=00:00:05.79 bitrate=3223.5kbits/s speed=0.0151x    frame=  230 fps=0.6 q=48.0 size=    2280kB time=00:00:05.83 bitrate=3200.9kbits/s speed=0.0151x    frame=  231 fps=0.6 q=48.0 size=    2280kB time=00:00:05.87 bitrate=3178.0kbits/s speed=0.0151x    frame=  232 fps=0.6 q=48.0 size=    2280kB time=00:00:05.91 bitrate=3155.4kbits/s speed=0.0151x    frame=  233 fps=0.6 q=48.0 size=    2280kB time=00:00:05.95 bitrate=3133.7kbits/s speed=0.0152x    frame=  234 fps=0.6 q=48.0 size=    2280kB time=00:00:06.00 bitrate=3111.8kbits/s speed=0.0152x    frame=  235 fps=0.6 q=48.0 size=    2280kB time=00:00:06.04 bitrate=3090.2kbits/s speed=0.0152x    frame=  236 fps=0.6 q=48.0 size=    2280kB time=00:00:06.08 bitrate=3069.3kbits/s speed=0.0152x    frame=  237 fps=0.6 q=48.0 size=    2280kB time=00:00:06.12 bitrate=3048.3kbits/s speed=0.0152x    frame=  238 fps=0.6 q=48.0 size=    2280kB time=00:00:06.16 bitrate=3027.5kbits/s speed=0.0153x    frame=  239 fps=0.6 q=48.0 size=    2280kB time=00:00:06.20 bitrate=3007.6kbits/s speed=0.0153x    frame=  240 fps=0.6 q=48.0 size=    2280kB time=00:00:06.25 bitrate=2987.3kbits/s speed=0.0153x    frame=  241 fps=0.6 q=48.0 size=    2280kB time=00:00:06.29 bitrate=2967.4kbits/s speed=0.0154x    frame=  242 fps=0.6 q=48.0 size=    2280kB time=00:00:06.33 bitrate=2948.2kbits/s speed=0.0155x    frame=  244 fps=0.6 q=48.0 size=    2280kB time=00:00:06.41 bitrate=2909.6kbits/s speed=0.0157x    frame=  245 fps=0.6 q=48.0 size=    2280kB time=00:00:06.45 bitrate=2891.1kbits/s speed=0.0153x    frame=  246 fps=0.6 q=48.0 size=    2280kB time=00:00:06.50 bitrate=2872.5kbits/s speed=0.0154x    frame=  247 fps=0.6 q=48.0 size=    2280kB time=00:00:06.54 bitrate=2854.0kbits/s speed=0.0154x    frame=  248 fps=0.6 q=48.0 size=    2280kB time=00:00:06.58 bitrate=2836.3kbits/s speed=0.0155x    frame=  249 fps=0.6 q=48.0 size=    2280kB time=00:00:06.62 bitrate=2818.3kbits/s speed=0.0155x    frame=  250 fps=0.6 q=48.0 size=    2280kB time=00:00:06.66 bitrate=2800.5kbits/s speed=0.0155x    frame=  251 fps=0.6 q=48.0 size=    2280kB time=00:00:06.70 bitrate=2783.4kbits/s speed=0.0154x    frame=  252 fps=0.6 q=48.0 size=    2280kB time=00:00:06.75 bitrate=2766.1kbits/s speed=0.0154x    frame=  253 fps=0.6 q=48.0 size=    2280kB time=00:00:06.79 bitrate=2749.0kbits/s speed=0.0155x    frame=  254 fps=0.6 q=48.0 size=    2280kB time=00:00:06.83 bitrate=2732.5kbits/s speed=0.0155x    frame=  255 fps=0.6 q=48.0 size=    2280kB time=00:00:06.87 bitrate=2715.8kbits/s speed=0.0155x    frame=  256 fps=0.6 q=48.0 size=    2280kB time=00:00:06.91 bitrate=2699.3kbits/s speed=0.0156x    frame=  257 fps=0.6 q=48.0 size=    2280kB time=00:00:06.95 bitrate=2683.4kbits/s speed=0.0155x    frame=  258 fps=0.6 q=48.0 size=    2280kB time=00:00:07.00 bitrate=2667.3kbits/s speed=0.0155x    frame=  259 fps=0.6 q=48.0 size=    2280kB time=00:00:07.04 bitrate=2651.4kbits/s speed=0.0155x    frame=  260 fps=0.6 q=48.0 size=    2280kB time=00:00:07.08 bitrate=2636.1kbits/s speed=0.0155x    frame=  261 fps=0.6 q=48.0 size=    2280kB time=00:00:07.12 bitrate=2620.5kbits/s speed=0.0155x    frame=  262 fps=0.6 q=48.0 size=    2280kB time=00:00:07.16 bitrate=2605.2kbits/s speed=0.0155x    frame=  263 fps=0.6 q=48.0 size=    2280kB time=00:00:07.20 bitrate=2590.4kbits/s speed=0.0155x    frame=  264 fps=0.6 q=48.0 size=    2280kB time=00:00:07.25 bitrate=2575.4kbits/s speed=0.0155x    frame=  265 fps=0.6 q=48.0 size=    2280kB time=00:00:07.29 bitrate=2560.5kbits/s speed=0.0156x    frame=  266 fps=0.6 q=48.0 size=    2280kB time=00:00:07.33 bitrate=2546.2kbits/s speed=0.0156x    frame=  267 fps=0.6 q=48.0 size=    2280kB time=00:00:07.37 bitrate=2531.7kbits/s speed=0.0156x    frame=  268 fps=0.6 q=48.0 size=    2280kB time=00:00:07.41 bitrate=2517.4kbits/s speed=0.0156x    frame=  269 fps=0.6 q=48.0 size=    2280kB time=00:00:07.45 bitrate=2503.5kbits/s speed=0.0155x    frame=  270 fps=0.6 q=48.0 size=    2280kB time=00:00:07.50 bitrate=2489.5kbits/s speed=0.0156x    frame=  271 fps=0.6 q=48.0 size=    2280kB time=00:00:07.54 bitrate=2475.7kbits/s speed=0.0156x    frame=  272 fps=0.6 q=48.0 size=    2280kB time=00:00:07.58 bitrate=2462.3kbits/s speed=0.0156x    frame=  273 fps=0.6 q=48.0 size=    2280kB time=00:00:07.62 bitrate=2448.7kbits/s speed=0.0156x    frame=  274 fps=0.6 q=48.0 size=    2280kB time=00:00:07.66 bitrate=2435.3kbits/s speed=0.0156x    frame=  276 fps=0.6 q=47.0 size=    2280kB time=00:00:07.75 bitrate=2409.2kbits/s speed=0.0157x    frame=  277 fps=0.6 q=47.0 size=    2280kB time=00:00:07.79 bitrate=2396.2kbits/s speed=0.0157x    frame=  278 fps=0.6 q=47.0 size=    2280kB time=00:00:07.83 bitrate=2383.7kbits/s speed=0.0158x    frame=  279 fps=0.6 q=47.0 size=    2280kB time=00:00:07.87 bitrate=2371.0kbits/s speed=0.0157x    frame=  280 fps=0.6 q=47.0 size=    2280kB time=00:00:07.91 bitrate=2358.4kbits/s speed=0.0158x    frame=  281 fps=0.6 q=47.0 size=    2280kB time=00:00:07.95 bitrate=2346.3kbits/s speed=0.0158x    frame=  282 fps=0.6 q=47.0 size=    2280kB time=00:00:08.00 bitrate=2333.9kbits/s speed=0.0158x    frame=  283 fps=0.6 q=47.0 size=    2280kB time=00:00:08.04 bitrate=2321.8kbits/s speed=0.0158x    frame=  284 fps=0.6 q=47.0 size=    2280kB time=00:00:08.08 bitrate=2310.0kbits/s speed=0.0159x    frame=  285 fps=0.6 q=47.0 size=    2280kB time=00:00:08.12 bitrate=2298.0kbits/s speed=0.0158x    frame=  286 fps=0.6 q=47.0 size=    2280kB time=00:00:08.16 bitrate=2286.2kbits/s speed=0.0158x    frame=  287 fps=0.6 q=47.0 size=    2280kB time=00:00:08.20 bitrate=2274.8kbits/s speed=0.0159x    frame=  288 fps=0.6 q=47.0 size=    2280kB time=00:00:08.25 bitrate=2263.2kbits/s speed=0.0158x    frame=  289 fps=0.6 q=47.0 size=    2280kB time=00:00:08.29 bitrate=2251.8kbits/s speed=0.0159x    frame=  290 fps=0.6 q=47.0 size=    2280kB time=00:00:08.33 bitrate=2240.7kbits/s speed=0.0159x    frame=  291 fps=0.6 q=47.0 size=    2280kB time=00:00:08.37 bitrate=2229.5kbits/s speed=0.0159x    frame=  292 fps=0.6 q=47.0 size=    2280kB time=00:00:08.41 bitrate=2218.3kbits/s speed=0.0159x    frame=  293 fps=0.6 q=47.0 size=    2280kB time=00:00:08.45 bitrate=2207.6kbits/s speed=0.0159x    frame=  294 fps=0.6 q=47.0 size=    2280kB time=00:00:08.50 bitrate=2196.7kbits/s speed=0.0159x    frame=  295 fps=0.6 q=47.0 size=    2280kB time=00:00:08.54 bitrate=2185.9kbits/s speed=0.0159x    frame=  296 fps=0.6 q=47.0 size=    2280kB time=00:00:08.58 bitrate=2175.4kbits/s speed=0.016x    frame=  297 fps=0.5 q=47.0 size=    2280kB time=00:00:08.62 bitrate=2164.8kbits/s speed=0.0159x    frame=  298 fps=0.5 q=47.0 size=    2280kB time=00:00:08.66 bitrate=2154.4kbits/s speed=0.016x    frame=  299 fps=0.5 q=47.0 size=    2280kB time=00:00:08.70 bitrate=2144.2kbits/s speed=0.016x    frame=  300 fps=0.5 q=47.0 size=    2280kB time=00:00:08.75 bitrate=2133.9kbits/s speed=0.0159x    frame=  301 fps=0.5 q=47.0 size=    2280kB time=00:00:08.79 bitrate=2123.7kbits/s speed=0.016x    frame=  302 fps=0.5 q=47.0 size=    2280kB time=00:00:08.83 bitrate=2113.9kbits/s speed=0.016x    frame=  303 fps=0.5 q=47.0 size=    2280kB time=00:00:08.87 bitrate=2103.9kbits/s speed=0.0161x    frame=  304 fps=0.5 q=47.0 size=    2280kB time=00:00:08.91 bitrate=2094.0kbits/s speed=0.0161x    frame=  305 fps=0.5 q=47.0 size=    2280kB time=00:00:08.95 bitrate=2084.4kbits/s speed=0.0161x    frame=  306 fps=0.5 q=47.0 size=    2280kB time=00:00:09.00 bitrate=2074.6kbits/s speed=0.0161x    frame=  307 fps=0.5 q=47.0 size=    2280kB time=00:00:09.04 bitrate=2065.0kbits/s speed=0.016x    frame=  308 fps=0.5 q=47.0 size=    2280kB time=00:00:09.08 bitrate=2055.7kbits/s speed=0.0161x    frame=  309 fps=0.5 q=47.0 size=    2280kB time=00:00:09.12 bitrate=2046.2kbits/s speed=0.0161x    frame=  310 fps=0.5 q=47.0 size=    2280kB time=00:00:09.16 bitrate=2036.9kbits/s speed=0.0161x    frame=  311 fps=0.5 q=47.0 size=    2280kB time=00:00:09.20 bitrate=2027.8kbits/s speed=0.0162x    frame=  312 fps=0.5 q=47.0 size=    2280kB time=00:00:09.25 bitrate=2018.6kbits/s speed=0.0162x    frame=  313 fps=0.5 q=47.0 size=    2280kB time=00:00:09.29 bitrate=2009.5kbits/s speed=0.0163x    frame=  314 fps=0.5 q=47.0 size=    2280kB time=00:00:09.33 bitrate=2000.6kbits/s speed=0.0162x    frame=  315 fps=0.5 q=47.0 size=    2280kB time=00:00:09.37 bitrate=1991.7kbits/s speed=0.0162x    frame=  316 fps=0.5 q=47.0 size=    2280kB time=00:00:09.41 bitrate=1982.8kbits/s speed=0.0163x    frame=  319 fps=0.5 q=47.0 size=    2280kB time=00:00:09.54 bitrate=1956.8kbits/s speed=0.0164x    frame=  320 fps=0.5 q=46.0 size=    2280kB time=00:00:09.58 bitrate=1948.4kbits/s speed=0.0164x    frame=  321 fps=0.5 q=46.0 size=    2280kB time=00:00:09.62 bitrate=1939.9kbits/s speed=0.0163x    frame=  322 fps=0.5 q=46.0 size=    2280kB time=00:00:09.66 bitrate=1931.5kbits/s speed=0.0163x    frame=  323 fps=0.5 q=46.0 size=    2280kB time=00:00:09.70 bitrate=1923.4kbits/s speed=0.0164x    frame=  324 fps=0.5 q=46.0 size=    2280kB time=00:00:09.75 bitrate=1915.1kbits/s speed=0.0164x    frame=  325 fps=0.5 q=46.0 size=    2280kB time=00:00:09.79 bitrate=1906.9kbits/s speed=0.0165x    frame=  326 fps=0.5 q=46.0 size=    2280kB time=00:00:09.83 bitrate=1898.9kbits/s speed=0.0165x    frame=  327 fps=0.5 q=46.0 size=    2280kB time=00:00:09.87 bitrate=1890.8kbits/s speed=0.0165x    frame=  328 fps=0.5 q=46.0 size=    2280kB time=00:00:09.91 bitrate=1882.8kbits/s speed=0.0164x    frame=  329 fps=0.5 q=46.0 size=    4080kB time=00:00:09.95 bitrate=3356.4kbits/s speed=0.0164x    frame=  330 fps=0.5 q=46.0 size=    4080kB time=00:00:10.00 bitrate=3342.3kbits/s speed=0.0165x    frame=  331 fps=0.5 q=46.0 size=    4080kB time=00:00:10.04 bitrate=3328.3kbits/s speed=0.0165x    frame=  332 fps=0.5 q=46.0 size=    4080kB time=00:00:10.08 bitrate=3314.8kbits/s speed=0.0165x    frame=  333 fps=0.5 q=44.0 size=    4080kB time=00:00:10.12 bitrate=3301.0kbits/s speed=0.0166x    frame=  334 fps=0.5 q=46.0 size=    4080kB time=00:00:10.16 bitrate=3287.4kbits/s speed=0.0165x    frame=  335 fps=0.5 q=46.0 size=    4080kB time=00:00:10.20 bitrate=3274.2kbits/s speed=0.0165x    frame=  336 fps=0.5 q=46.0 size=    4080kB time=00:00:10.25 bitrate=3260.8kbits/s speed=0.0165x    frame=  337 fps=0.5 q=46.0 size=    4080kB time=00:00:10.29 bitrate=3247.5kbits/s speed=0.0166x    frame=  338 fps=0.5 q=46.0 size=    4202kB time=00:00:10.33 bitrate=3330.9kbits/s speed=0.0166x    frame=  344 fps=0.5 q=46.0 size=    4202kB time=00:00:10.58 bitrate=3252.2kbits/s speed=0.0169x    frame=  346 fps=0.6 q=46.0 size=    4202kB time=00:00:10.66 bitrate=3226.6kbits/s speed=0.017x    frame=  347 fps=0.6 q=46.0 size=    4202kB time=00:00:10.70 bitrate=3214.2kbits/s speed=0.017x    frame=  349 fps=0.6 q=46.0 size=    4202kB time=00:00:10.79 bitrate=3189.2kbits/s speed=0.0171x    frame=  350 fps=0.6 q=46.0 size=    4202kB time=00:00:10.83 bitrate=3177.2kbits/s speed=0.0172x    frame=  351 fps=0.6 q=46.0 size=    4202kB time=00:00:10.87 bitrate=3164.9kbits/s speed=0.0172x    frame=  353 fps=0.6 q=46.0 size=    4202kB time=00:00:10.95 bitrate=3140.9kbits/s speed=0.0173x    frame=  355 fps=0.6 q=46.0 size=    4202kB time=00:00:11.04 bitrate=3117.0kbits/s speed=0.0173x    frame=  357 fps=0.6 q=46.0 size=    4202kB time=00:00:11.12 bitrate=3093.8kbits/s speed=0.0174x    frame=  358 fps=0.6 q=46.0 size=    4202kB time=00:00:11.16 bitrate=3082.1kbits/s speed=0.0174x    frame=  360 fps=0.6 q=45.0 size=    4202kB time=00:00:11.25 bitrate=3059.4kbits/s speed=0.0175x    frame=  361 fps=0.6 q=45.0 size=    4202kB time=00:00:11.29 bitrate=3048.0kbits/s speed=0.0174x    frame=  363 fps=0.6 q=45.0 size=    4202kB time=00:00:11.37 bitrate=3025.8kbits/s speed=0.0175x    frame=  365 fps=0.6 q=45.0 size=    4202kB time=00:00:11.45 bitrate=3003.9kbits/s speed=0.0175x    frame=  366 fps=0.6 q=45.0 size=    4202kB time=00:00:11.50 bitrate=2992.9kbits/s speed=0.0176x    frame=  367 fps=0.6 q=45.0 size=    4202kB time=00:00:11.54 bitrate=2982.0kbits/s speed=0.0176x    frame=  369 fps=0.6 q=45.0 size=    4202kB time=00:00:11.62 bitrate=2960.7kbits/s speed=0.0176x    frame=  371 fps=0.6 q=45.0 size=    4202kB time=00:00:11.70 bitrate=2939.7kbits/s speed=0.0177x    frame=  372 fps=0.6 q=45.0 size=    4202kB time=00:00:11.75 bitrate=2929.2kbits/s speed=0.0177x    frame=  373 fps=0.6 q=45.0 size=    4202kB time=00:00:11.79 bitrate=2918.8kbits/s speed=0.0177x    frame=  374 fps=0.6 q=45.0 size=    4202kB time=00:00:11.83 bitrate=2908.7kbits/s speed=0.0177x    frame=  376 fps=0.6 q=45.0 size=    4202kB time=00:00:11.91 bitrate=2888.2kbits/s speed=0.0177x    frame=  377 fps=0.6 q=45.0 size=    4202kB time=00:00:11.95 bitrate=2878.3kbits/s speed=0.0178x    frame=  378 fps=0.6 q=45.0 size=    4202kB time=00:00:12.00 bitrate=2868.2kbits/s speed=0.0178x    frame=  380 fps=0.6 q=45.0 size=    4202kB time=00:00:12.08 bitrate=2848.5kbits/s speed=0.0178x    frame=  382 fps=0.6 q=45.0 size=    4202kB time=00:00:12.16 bitrate=2828.8kbits/s speed=0.0179x    frame=  385 fps=0.6 q=45.0 size=    4202kB time=00:00:12.29 bitrate=2800.1kbits/s speed=0.018x    frame=  387 fps=0.6 q=45.0 size=    4202kB time=00:00:12.37 bitrate=2781.3kbits/s speed=0.0181x    frame=  388 fps=0.6 q=44.0 size=    4202kB time=00:00:12.41 bitrate=2771.9kbits/s speed=0.018x    frame=  389 fps=0.6 q=45.0 size=    4202kB time=00:00:12.45 bitrate=2762.8kbits/s speed=0.0181x    frame=  391 fps=0.6 q=45.0 size=    4202kB time=00:00:12.54 bitrate=2744.3kbits/s speed=0.0182x    frame=  394 fps=0.6 q=44.0 size=    4202kB time=00:00:12.66 bitrate=2717.2kbits/s speed=0.0182x    frame=  396 fps=0.6 q=44.0 size=    4202kB time=00:00:12.75 bitrate=2699.5kbits/s speed=0.0183x    frame=  400 fps=0.6 q=44.0 size=    4202kB time=00:00:12.91 bitrate=2664.6kbits/s speed=0.0183x    frame=  402 fps=0.6 q=44.0 size=    4202kB time=00:00:13.00 bitrate=2647.6kbits/s speed=0.0184x    frame=  406 fps=0.6 q=44.0 size=    4202kB time=00:00:13.16 bitrate=2614.0kbits/s speed=0.0184x    frame=  408 fps=0.6 q=44.0 size=    4202kB time=00:00:13.25 bitrate=2597.6kbits/s speed=0.0185x    frame=  411 fps=0.6 q=43.0 size=    4202kB time=00:00:13.37 bitrate=2573.4kbits/s speed=0.0187x    frame=  412 fps=0.6 q=43.0 size=    4202kB time=00:00:13.41 bitrate=2565.3kbits/s speed=0.0186x    frame=  416 fps=0.6 q=43.0 size=    4202kB time=00:00:13.58 bitrate=2534.0kbits/s speed=0.0187x    frame=  418 fps=0.6 q=43.0 size=    4202kB time=00:00:13.66 bitrate=2518.4kbits/s speed=0.0188x    frame=  421 fps=0.6 q=43.0 size=    4202kB time=00:00:13.79 bitrate=2495.6kbits/s speed=0.0188x    frame=  422 fps=0.6 q=43.0 size=    4202kB time=00:00:13.83 bitrate=2488.2kbits/s speed=0.0189x    frame=  426 fps=0.6 q=43.0 size=    4202kB time=00:00:14.00 bitrate=2458.5kbits/s speed=0.019x    frame=  428 fps=0.6 q=43.0 size=    4202kB time=00:00:14.08 bitrate=2444.0kbits/s speed=0.019x    frame=  432 fps=0.6 q=42.0 size=    4202kB time=00:00:14.25 bitrate=2415.4kbits/s speed=0.0191x    frame=  434 fps=0.6 q=43.0 size=    4202kB time=00:00:14.33 bitrate=2401.4kbits/s speed=0.0192x    frame=  438 fps=0.6 q=42.0 size=    4202kB time=00:00:14.50 bitrate=2373.7kbits/s speed=0.0192x    frame=  440 fps=0.6 q=42.0 size=    4202kB time=00:00:14.58 bitrate=2360.2kbits/s speed=0.0193x    frame=  444 fps=0.6 q=42.0 size=    4202kB time=00:00:14.75 bitrate=2333.5kbits/s speed=0.0193x    frame=  445 fps=0.6 q=42.0 size=    4202kB time=00:00:14.79 bitrate=2326.9kbits/s speed=0.0194x    frame=  447 fps=0.6 q=42.0 size=    4202kB time=00:00:14.87 bitrate=2313.9kbits/s speed=0.0195x    frame=  448 fps=0.6 q=42.0 size=    4202kB time=00:00:14.91 bitrate=2307.4kbits/s speed=0.0193x    frame=  449 fps=0.6 q=42.0 size=    4202kB time=00:00:14.95 bitrate=2301.0kbits/s speed=0.0194x    frame=  451 fps=0.6 q=41.0 size=    4202kB time=00:00:15.04 bitrate=2288.2kbits/s speed=0.0194x    frame=  452 fps=0.6 q=42.0 size=    4202kB time=00:00:15.08 bitrate=2282.0kbits/s speed=0.0195x    frame=  453 fps=0.6 q=41.0 size=    4202kB time=00:00:15.12 bitrate=2275.6kbits/s speed=0.0195x    frame=  454 fps=0.6 q=41.0 size=    4202kB time=00:00:15.16 bitrate=2269.3kbits/s speed=0.0195x    frame=  455 fps=0.6 q=41.0 size=    4202kB time=00:00:15.20 bitrate=2263.2kbits/s speed=0.0193x    frame=  456 fps=0.6 q=41.0 size=    4202kB time=00:00:15.25 bitrate=2257.0kbits/s speed=0.0194x    frame=  457 fps=0.6 q=41.0 size=    4202kB time=00:00:15.29 bitrate=2250.8kbits/s speed=0.0194x    frame=  458 fps=0.6 q=41.0 size=    5447kB time=00:00:15.33 bitrate=2909.8kbits/s speed=0.0194x    frame=  459 fps=0.6 q=41.0 size=    5447kB time=00:00:15.37 bitrate=2901.8kbits/s speed=0.0194x    frame=  460 fps=0.6 q=41.0 size=    5447kB time=00:00:15.41 bitrate=2893.9kbits/s speed=0.0194x    frame=  461 fps=0.6 q=41.0 size=    5447kB time=00:00:15.45 bitrate=2886.2kbits/s speed=0.0195x    frame=  463 fps=0.6 q=41.0 size=    5447kB time=00:00:15.54 bitrate=2870.6kbits/s speed=0.0194x    frame=  464 fps=0.6 q=41.0 size=    5447kB time=00:00:15.58 bitrate=2863.1kbits/s speed=0.0194x    frame=  465 fps=0.6 q=41.0 size=    5447kB time=00:00:15.62 bitrate=2855.4kbits/s speed=0.0195x    frame=  467 fps=0.6 q=41.0 size=    5447kB time=00:00:15.70 bitrate=2840.3kbits/s speed=0.0195x    frame=  468 fps=0.6 q=41.0 size=    5447kB time=00:00:15.75 bitrate=2832.7kbits/s speed=0.0195x    frame=  469 fps=0.6 q=41.0 size=    5447kB time=00:00:15.79 bitrate=2825.2kbits/s speed=0.0196x    frame=  470 fps=0.6 q=41.0 size=    5447kB time=00:00:15.83 bitrate=2817.9kbits/s speed=0.0195x    frame=  471 fps=0.6 q=41.0 size=    5447kB time=00:00:15.87 bitrate=2810.4kbits/s speed=0.0195x    frame=  472 fps=0.6 q=41.0 size=    5447kB time=00:00:15.91 bitrate=2803.0kbits/s speed=0.0195x    frame=  476 fps=0.6 q=41.0 size=    5447kB time=00:00:16.08 bitrate=2774.1kbits/s speed=0.0195x    frame=  477 fps=0.6 q=41.0 size=    5447kB time=00:00:16.12 bitrate=2766.9kbits/s speed=0.0195x    frame=  478 fps=0.6 q=41.0 size=    5447kB time=00:00:16.16 bitrate=2759.7kbits/s speed=0.0196x    frame=  479 fps=0.6 q=41.0 size=    5447kB time=00:00:16.20 bitrate=2752.7kbits/s speed=0.0196x    frame=  480 fps=0.6 q=41.0 size=    5447kB time=00:00:16.25 bitrate=2745.6kbits/s speed=0.0196x    frame=  481 fps=0.6 q=41.0 size=    5447kB time=00:00:16.29 bitrate=2738.5kbits/s speed=0.0196x    frame=  482 fps=0.6 q=41.0 size=    5447kB time=00:00:16.33 bitrate=2731.6kbits/s speed=0.0196x    frame=  483 fps=0.6 q=41.0 size=    5447kB time=00:00:16.37 bitrate=2724.6kbits/s speed=0.0195x    frame=  484 fps=0.6 q=41.0 size=    5447kB time=00:00:16.41 bitrate=2717.7kbits/s speed=0.0195x    frame=  485 fps=0.6 q=41.0 size=    5447kB time=00:00:16.45 bitrate=2710.9kbits/s speed=0.0195x    frame=  487 fps=0.6 q=41.0 size=    5447kB time=00:00:16.54 bitrate=2697.1kbits/s speed=0.0196x    frame=  488 fps=0.6 q=41.0 size=    5447kB time=00:00:16.58 bitrate=2690.5kbits/s speed=0.0196x    frame=  489 fps=0.6 q=41.0 size=    5447kB time=00:00:16.62 bitrate=2683.7kbits/s speed=0.0196x    frame=  490 fps=0.6 q=41.0 size=    5447kB time=00:00:16.66 bitrate=2676.9kbits/s speed=0.0194x    frame=  492 fps=0.6 q=41.0 size=    5447kB time=00:00:16.75 bitrate=2663.6kbits/s speed=0.0195x    frame=  493 fps=0.6 q=41.0 size=    5447kB time=00:00:16.79 bitrate=2657.0kbits/s speed=0.0195x    frame=  494 fps=0.6 q=41.0 size=    5447kB time=00:00:16.83 bitrate=2650.5kbits/s speed=0.0195x    frame=  495 fps=0.6 q=41.0 size=    5447kB time=00:00:16.87 bitrate=2643.9kbits/s speed=0.0195x    frame=  496 fps=0.6 q=41.0 size=    5447kB time=00:00:16.91 bitrate=2637.3kbits/s speed=0.0196x    frame=  497 fps=0.6 q=41.0 size=    5447kB time=00:00:16.95 bitrate=2631.0kbits/s speed=0.0194x    frame=  498 fps=0.6 q=41.0 size=    5447kB time=00:00:17.00 bitrate=2624.5kbits/s speed=0.0195x    frame=  499 fps=0.6 q=41.0 size=    5447kB time=00:00:17.04 bitrate=2618.0kbits/s speed=0.0195x    frame=  500 fps=0.6 q=41.0 size=    5447kB time=00:00:17.08 bitrate=2611.7kbits/s speed=0.0195x    frame=  500 fps=0.5 q=-1.0 Lsize=    7310kB time=00:00:20.70 bitrate=2891.6kbits/s speed=0.0202x    
video:7305kB audio:0kB subtitle:0kB other streams:0kB global headers:0kB muxing overhead: 0.060930%
bench: utime=3781.280s
bench: maxrss=4196468kB
[libx264 @ 0x32621c0] frame I:3     Avg QP:35.14  size: 78963
[libx264 @ 0x32621c0] frame P:267   Avg QP:43.87  size: 19406
[libx264 @ 0x32621c0] frame B:230   Avg QP:42.66  size:  8964
[libx264 @ 0x32621c0] consecutive B-frames: 34.8% 13.6% 12.0% 16.0% 14.0%  9.6%  0.0%  0.0%  0.0%  0.0%  0.0%  0.0%  0.0%  0.0%  0.0%  0.0%  0.0%
[libx264 @ 0x32621c0] mb I  I16..4: 28.7% 59.8% 11.5%
[libx264 @ 0x32621c0] mb P  I16..4:  5.7% 10.0% 22.5%  P16..4: 19.0%  5.4%  0.6%  0.0%  0.0%    skip:36.8%
[libx264 @ 0x32621c0] mb B  I16..4:  0.6%  0.6%  0.7%  B16..8: 24.6%  2.3%  0.2%  direct: 0.2%  skip:70.8%  L0:38.3% L1:60.8% BI: 0.9%
[libx264 @ 0x32621c0] final ratefactor: 38.56
[libx264 @ 0x32621c0] 8x8 transform intra:27.4% inter:85.8%
[libx264 @ 0x32621c0] direct mvs  spatial:98.7% temporal:1.3%
[libx264 @ 0x32621c0] coded y,uvDC,uvAC intra: 4.5% 8.5% 0.1% inter: 0.6% 0.9% 0.0%
[libx264 @ 0x32621c0] i16 v,h,dc,p:  8% 20%  3% 69%
[libx264 @ 0x32621c0] i8 v,h,dc,ddl,ddr,vr,hd,vl,hu: 17%  5% 65%  2%  2%  2%  2%  2%  3%
[libx264 @ 0x32621c0] i4 v,h,dc,ddl,ddr,vr,hd,vl,hu:  6%  1% 93%  0%  0%  0%  0%  0%  0%
[libx264 @ 0x32621c0] i8c dc,h,v,p: 59% 33%  3%  5%
[libx264 @ 0x32621c0] Weighted P-Frames: Y:3.0% UV:2.6%
[libx264 @ 0x32621c0] ref P L0: 37.1% 21.6% 17.1%  5.3%  3.9%  3.2%  3.0%  1.4%  1.4%  1.1%  1.0%  0.9%  0.8%  0.8%  0.8%  0.5%
[libx264 @ 0x32621c0] ref B L0: 89.1%  4.7%  2.2%  0.9%  0.7%  0.5%  0.5%  0.3%  0.2%  0.2%  0.2%  0.2%  0.2%  0.1%  0.1%
[libx264 @ 0x32621c0] ref B L1: 98.6%  1.4%
[libx264 @ 0x32621c0] kb/s:2872.31
